<mxfile host="app.diagrams.net" modified="2024-02-27T19:30:37.252Z" agent="Mozilla/5.0 (Windows NT 10.0; Win64; x64; rv:123.0) Gecko/20100101 Firefox/123.0" version="23.1.7" etag="j3cznbhbPE8_6swTIPcO" type="github">
  <diagram name="PÃ¡gina-1" id="nU8q-ExsLTpvmvox7A4g">
    <mxGraphModel>
      <root>
        <mxCell id="0" />
        <mxCell id="1" parent="0" />
      </root>
    </mxGraphModel>
  </diagram>
</mxfile>
